<svg width="169" height="35" viewBox="0 0 169 35" fill="none" xmlns="http://www.w3.org/2000/svg">
<path d="M58.022 30.758C58.022 30.5776 58.1684 30.4352 58.3635 30.4352C58.5587 30.4352 58.6953 30.5776 58.6953 30.758V33.891C58.6953 34.0713 58.5489 34.2138 58.3635 34.2138C58.1781 34.2138 58.022 34.0713 58.022 33.891V30.758Z" fill="#ffffff"/>
<path d="M60.9201 30.7679C60.9201 30.5875 61.0665 30.4356 61.2617 30.4356H61.33C61.4959 30.4356 61.5837 30.5211 61.6813 30.6255L63.594 33.037V30.7489C63.594 30.5781 63.7404 30.4261 63.9258 30.4261C64.1112 30.4261 64.2576 30.5686 64.2576 30.7489V33.8819C64.2576 34.0623 64.1112 34.2047 63.9258 34.2047H63.8965C63.7404 34.2047 63.6428 34.1288 63.5452 34.0054L61.574 31.5274V33.8914C61.574 34.0718 61.4276 34.2142 61.2422 34.2142C61.0568 34.2142 60.9104 34.0718 60.9104 33.8914V30.7679H60.9201Z" fill="#ffffff"/>
<path d="M66.4532 30.7863C66.4532 30.5964 66.5996 30.454 66.7948 30.454H69.0296C69.1955 30.454 69.3321 30.5869 69.3321 30.7483C69.3321 30.9097 69.1955 31.0426 69.0296 31.0426H67.1266V32.0585H68.7758C68.9417 32.0585 69.0784 32.1914 69.0784 32.3528C69.0784 32.5142 68.9417 32.6471 68.7758 32.6471H67.1266V33.8718C67.1266 34.0522 66.9802 34.1946 66.7948 34.1946C66.6094 34.1946 66.4532 34.0522 66.4532 33.8718V30.7673V30.7863Z" fill="#ffffff"/>
<path d="M71.284 30.758C71.284 30.5776 71.4303 30.4352 71.6255 30.4352C71.8207 30.4352 71.9573 30.5776 71.9573 30.758V33.891C71.9573 34.0713 71.8109 34.2138 71.6255 34.2138C71.4401 34.2138 71.284 34.0713 71.284 33.891V30.758Z" fill="#ffffff"/>
<path d="M74.1821 30.7679C74.1821 30.5875 74.3285 30.4356 74.5237 30.4356H74.592C74.7579 30.4356 74.8457 30.5211 74.9433 30.6255L76.856 33.037V30.7489C76.856 30.5781 77.0024 30.4261 77.1878 30.4261C77.3732 30.4261 77.5196 30.5686 77.5196 30.7489V33.8819C77.5196 34.0623 77.3732 34.2047 77.1878 34.2047H77.1585C77.0024 34.2047 76.9048 34.1288 76.8072 34.0054L74.8359 31.5274V33.8914C74.8359 34.0718 74.6896 34.2142 74.5041 34.2142C74.3187 34.2142 74.1724 34.0718 74.1724 33.8914V30.7679H74.1821Z" fill="#ffffff"/>
<path d="M79.7545 30.758C79.7545 30.5776 79.9009 30.4352 80.0961 30.4352C80.2913 30.4352 80.4279 30.5776 80.4279 30.758V33.891C80.4279 34.0713 80.2815 34.2138 80.0961 34.2138C79.9107 34.2138 79.7545 34.0713 79.7545 33.891V30.758Z" fill="#ffffff"/>
<path d="M83.5895 31.0616H82.6624C82.4868 31.0616 82.3502 30.9192 82.3502 30.7578C82.3502 30.5964 82.4868 30.454 82.6624 30.454H85.2095C85.3754 30.454 85.512 30.5964 85.512 30.7578C85.512 30.9192 85.3754 31.0616 85.2095 31.0616H84.2726V33.8813C84.2726 34.0617 84.1165 34.2041 83.9311 34.2041C83.7457 34.2041 83.5895 34.0617 83.5895 33.8813V31.0616Z" fill="#ffffff"/>
<path d="M87.4052 33.8528V30.7863C87.4052 30.5964 87.5515 30.454 87.7467 30.454H89.9717C90.1376 30.454 90.2742 30.5869 90.2742 30.7483C90.2742 30.9097 90.1376 31.0426 89.9717 31.0426H88.0785V32.011H89.7277C89.8936 32.011 90.0302 32.1439 90.0302 32.3053C90.0302 32.4667 89.8936 32.5901 89.7277 32.5901H88.0785V33.587H90.001C90.1669 33.587 90.3035 33.7199 90.3035 33.8813C90.3035 34.0427 90.1669 34.1756 90.001 34.1756H87.7467C87.5515 34.1756 87.4052 34.0332 87.4052 33.8433" fill="#ffffff"/>
<path d="M97.408 32.7044L96.7346 31.1949L96.0613 32.7044H97.408ZM94.9 33.7582L96.3248 30.6727C96.4028 30.5113 96.5395 30.4069 96.7346 30.4069H96.7639C96.9591 30.4069 97.086 30.5113 97.164 30.6727L98.5888 33.7582C98.6181 33.8057 98.6278 33.8531 98.6278 33.9006C98.6278 34.0715 98.4912 34.2139 98.3058 34.2139C98.1497 34.2139 98.0423 34.119 97.974 33.9861L97.6617 33.293H95.7978L95.4758 34.0145C95.4172 34.1475 95.3099 34.2234 95.1635 34.2234C94.9878 34.2234 94.8512 34.0905 94.8512 33.9196C94.8512 33.8721 94.8707 33.8247 94.9 33.7677" fill="#ffffff"/>
<path d="M100.218 32.3336C100.218 31.2608 101.038 30.3969 102.19 30.3969C102.785 30.3969 103.165 30.5677 103.507 30.8146C103.575 30.8715 103.644 30.957 103.644 31.0804C103.644 31.2608 103.497 31.4032 103.312 31.4032C103.214 31.4032 103.156 31.3747 103.107 31.3367C102.843 31.1279 102.56 31.0045 102.19 31.0045C101.458 31.0045 100.921 31.5931 100.921 32.3241C100.921 33.0646 101.448 33.6533 102.19 33.6533C102.59 33.6533 102.873 33.5298 103.146 33.2925C103.195 33.245 103.263 33.2165 103.351 33.2165C103.526 33.2165 103.673 33.3495 103.673 33.5203C103.673 33.6248 103.624 33.7007 103.566 33.7577C103.204 34.071 102.795 34.2609 102.17 34.2609C101.058 34.2609 100.218 33.4159 100.218 32.3431" fill="#fffffff"/>
<path d="M105.352 32.3336C105.352 31.2608 106.171 30.3969 107.323 30.3969C107.918 30.3969 108.299 30.5677 108.64 30.8146C108.709 30.8715 108.777 30.957 108.777 31.0804C108.777 31.2608 108.631 31.4032 108.445 31.4032C108.348 31.4032 108.289 31.3747 108.24 31.3367C107.977 31.1279 107.694 31.0045 107.323 31.0045C106.591 31.0045 106.054 31.5931 106.054 32.3241C106.054 33.0646 106.581 33.6533 107.323 33.6533C107.723 33.6533 108.006 33.5298 108.279 33.2925C108.328 33.245 108.396 33.2165 108.484 33.2165C108.65 33.2165 108.806 33.3495 108.806 33.5203C108.806 33.6248 108.757 33.7007 108.699 33.7577C108.338 34.071 107.928 34.2609 107.303 34.2609C106.191 34.2609 105.352 33.4159 105.352 32.3431" fill="#ffffff"/>
<path d="M110.768 33.8528V30.7863C110.768 30.5964 110.914 30.454 111.109 30.454H113.334C113.5 30.454 113.637 30.5869 113.637 30.7483C113.637 30.9097 113.5 31.0426 113.334 31.0426H111.441V32.011H113.09C113.256 32.011 113.393 32.1439 113.393 32.3053C113.393 32.4667 113.256 32.5901 113.09 32.5901H111.441V33.587H113.363C113.529 33.587 113.666 33.7199 113.666 33.8813C113.666 34.0427 113.529 34.1756 113.363 34.1756H111.109C110.914 34.1756 110.768 34.0332 110.768 33.8433" fill="#ffffff"/>
<path d="M115.54 33.7677C115.462 33.7108 115.403 33.6253 115.403 33.5209C115.403 33.35 115.549 33.2171 115.725 33.2171C115.813 33.2171 115.881 33.2456 115.92 33.274C116.242 33.5209 116.574 33.6538 116.994 33.6538C117.413 33.6538 117.677 33.4639 117.677 33.1886C117.677 32.9133 117.521 32.7709 116.808 32.6095C115.988 32.4196 115.53 32.1822 115.53 31.4987C115.53 30.8531 116.076 30.4069 116.837 30.4069C117.316 30.4069 117.706 30.5303 118.048 30.7486C118.126 30.7961 118.194 30.8816 118.194 31.0145C118.194 31.1854 118.048 31.3183 117.872 31.3183C117.804 31.3183 117.755 31.2993 117.696 31.2708C117.404 31.0809 117.111 30.986 116.818 30.986C116.428 30.986 116.193 31.1854 116.193 31.4322C116.193 31.7265 116.369 31.8594 117.111 32.0303C117.921 32.2202 118.34 32.505 118.34 33.1221C118.34 33.8342 117.774 34.2424 116.974 34.2424C116.457 34.2424 115.959 34.081 115.54 33.7772" fill="#ffffff"/>
<path d="M120.195 33.7677C120.116 33.7108 120.058 33.6253 120.058 33.5209C120.058 33.35 120.204 33.2171 120.38 33.2171C120.468 33.2171 120.536 33.2456 120.575 33.274C120.897 33.5209 121.229 33.6538 121.649 33.6538C122.068 33.6538 122.332 33.4639 122.332 33.1886C122.332 32.9133 122.176 32.7709 121.463 32.6095C120.643 32.4196 120.185 32.1822 120.185 31.4987C120.185 30.8531 120.731 30.4069 121.492 30.4069C121.971 30.4069 122.361 30.5303 122.703 30.7486C122.781 30.7961 122.849 30.8816 122.849 31.0145C122.849 31.1854 122.703 31.3183 122.527 31.3183C122.459 31.3183 122.41 31.2993 122.351 31.2708C122.058 31.0809 121.766 30.986 121.473 30.986C121.083 30.986 120.848 31.1854 120.848 31.4322C120.848 31.7265 121.024 31.8594 121.766 32.0303C122.576 32.2202 122.995 32.505 122.995 33.1221C122.995 33.8342 122.429 34.2424 121.629 34.2424C121.112 34.2424 120.614 34.081 120.195 33.7772" fill="#ffffff"/>
<path d="M103.966 7.59269H101.301V2.20964C101.301 1.85836 101.175 1.57354 100.931 1.34569C100.687 1.11783 100.384 1.00391 100.043 1.00391C99.7011 1.00391 99.3985 1.11783 99.1643 1.34569C98.9204 1.57354 98.8033 1.85836 98.8033 2.20964V7.59269H96.5978C96.2562 7.59269 95.9537 7.70662 95.7097 7.94397C95.4658 8.18132 95.3389 8.46613 95.3389 8.79842C95.3389 9.13071 95.4658 9.44401 95.7097 9.68136C95.9537 9.9187 96.2562 10.0421 96.5978 10.0421H98.8033V24.7008C98.8033 25.0425 98.9204 25.3273 99.1643 25.5552C99.4083 25.7926 99.7011 25.9065 100.043 25.9065C100.384 25.9065 100.687 25.7926 100.931 25.5552C101.175 25.3179 101.301 25.033 101.301 24.7008V10.0516H103.966C104.327 10.0516 104.629 9.93769 104.863 9.70034C105.107 9.47249 105.225 9.16868 105.225 8.80791C105.225 8.46613 105.107 8.18132 104.863 7.95346C104.619 7.71611 104.327 7.60219 103.966 7.60219" fill="#ffffff"/>
<path d="M122.429 19.5172C122.068 20.3432 121.57 21.0647 120.936 21.6818C120.302 22.2989 119.56 22.7926 118.701 23.1534C117.842 23.5141 116.925 23.6945 115.939 23.6945C114.954 23.6945 114.036 23.5141 113.178 23.1534C112.319 22.7926 111.587 22.2989 110.953 21.6818C110.328 21.0647 109.83 20.3432 109.46 19.5172C109.089 18.6912 108.913 17.8178 108.913 16.8779C108.913 15.938 109.099 15.0456 109.46 14.2101C109.83 13.3841 110.328 12.6531 110.962 12.036C111.597 11.4189 112.338 10.9347 113.197 10.5739C114.056 10.2132 114.964 10.0423 115.939 10.0423C116.915 10.0423 117.842 10.2227 118.701 10.5739C119.56 10.9252 120.302 11.4189 120.936 12.036C121.57 12.6531 122.068 13.3746 122.429 14.2101C122.79 15.0456 122.966 15.9285 122.966 16.8779C122.966 17.8273 122.79 18.6912 122.429 19.5172ZM122.683 10.2891C121.824 9.45365 120.819 8.78907 119.657 8.30488C118.506 7.82069 117.267 7.57385 115.949 7.57385C114.632 7.57385 113.412 7.82069 112.251 8.30488C111.089 8.78907 110.074 9.45365 109.206 10.2891C108.337 11.1246 107.654 12.1119 107.157 13.2512C106.659 14.3905 106.405 15.5962 106.405 16.8779C106.405 18.1596 106.659 19.3463 107.157 20.4761C107.654 21.6059 108.337 22.5932 109.206 23.4287C110.074 24.2642 111.089 24.9287 112.251 25.4129C113.412 25.8971 114.641 26.144 115.949 26.144C117.257 26.144 118.506 25.8971 119.657 25.4129C120.809 24.9287 121.814 24.2642 122.683 23.4287C123.541 22.5932 124.225 21.6059 124.722 20.4761C125.22 19.3463 125.474 18.1501 125.474 16.8779C125.474 15.6057 125.22 14.381 124.722 13.2512C124.225 12.1119 123.541 11.1341 122.683 10.2891Z" fill="#ffffff"/>
<path d="M143.421 19.5172C143.06 20.3432 142.562 21.0647 141.937 21.6723C141.313 22.2894 140.571 22.7831 139.712 23.1439C138.854 23.5047 137.936 23.6945 136.951 23.6945C135.965 23.6945 135.048 23.5142 134.189 23.1439C133.33 22.7831 132.598 22.2894 131.964 21.6723C131.339 21.0552 130.842 20.3337 130.471 19.5172C130.1 18.6912 129.924 17.8178 129.924 16.8779C129.924 15.938 130.11 15.0456 130.471 14.2101C130.832 13.3746 131.339 12.6531 131.974 12.036C132.608 11.4189 133.35 10.9347 134.208 10.5739C135.057 10.2132 135.975 10.0423 136.951 10.0423C137.927 10.0423 138.863 10.2227 139.712 10.5739C140.561 10.9347 141.303 11.4189 141.937 12.036C142.562 12.6531 143.06 13.3746 143.421 14.2101C143.782 15.0456 143.957 15.9285 143.957 16.8779C143.957 17.8273 143.782 18.6912 143.421 19.5172ZM145.226 7.57385C144.875 7.57385 144.582 7.68778 144.338 7.91563C144.094 8.14349 143.967 8.42831 143.967 8.77958V10.5739C143.089 9.63403 142.054 8.903 140.854 8.37134C139.664 7.83968 138.366 7.57385 136.96 7.57385C135.653 7.57385 134.423 7.82069 133.262 8.30488C132.101 8.78908 131.086 9.45365 130.217 10.2891C129.349 11.1246 128.665 12.1119 128.168 13.2512C127.67 14.3905 127.416 15.5962 127.416 16.8779C127.416 18.1596 127.67 19.3463 128.168 20.4761C128.665 21.6059 129.349 22.5932 130.217 23.4287C131.086 24.2642 132.101 24.9287 133.262 25.4129C134.423 25.8971 135.653 26.144 136.96 26.144C138.366 26.144 139.664 25.8781 140.854 25.3465C142.045 24.8148 143.089 24.0838 143.967 23.1629V23.7515C143.967 26.0205 143.343 28.4795 141.362 29.8846C140.288 30.6536 138.951 30.9954 137.634 31.1473C136.59 31.2707 135.526 31.2897 134.472 31.2137C134.052 31.1758 133.613 31.1283 133.213 31.2707C132.784 31.4226 132.442 31.8023 132.345 32.2296C132.14 33.1315 132.774 33.6252 133.613 33.6821C135.331 33.8056 137.058 33.8341 138.746 33.5397C143.743 32.6568 146.446 28.6314 146.495 23.8654V8.77958C146.495 8.42831 146.368 8.14349 146.124 7.91563C145.88 7.68778 145.577 7.57385 145.236 7.57385" fill="#ffffff"/>
<path d="M165.583 19.5172C165.222 20.3432 164.724 21.0647 164.09 21.6723C163.455 22.2894 162.714 22.7831 161.855 23.1439C160.996 23.5047 160.079 23.685 159.093 23.685C158.108 23.685 157.19 23.5047 156.331 23.1439C155.473 22.7831 154.741 22.2894 154.106 21.6723C153.482 21.0552 152.984 20.3337 152.613 19.5172C152.243 18.6912 152.067 17.8178 152.067 16.8779C152.067 15.938 152.252 15.0456 152.613 14.2101C152.984 13.3746 153.482 12.6531 154.116 12.036C154.751 11.4189 155.492 10.9347 156.341 10.5739C157.2 10.2132 158.108 10.0423 159.083 10.0423C160.059 10.0423 160.986 10.2227 161.845 10.5739C162.694 10.9347 163.446 11.4189 164.08 12.036C164.714 12.6531 165.212 13.3746 165.573 14.2101C165.934 15.0456 166.11 15.9285 166.11 16.8779C166.11 17.8273 165.934 18.6912 165.573 19.5172H165.583ZM167.866 13.2512C167.369 12.1119 166.685 11.1341 165.827 10.2891C164.968 9.45365 163.963 8.78907 162.801 8.30488C161.65 7.82069 160.411 7.57385 159.093 7.57385C157.776 7.57385 156.556 7.82069 155.395 8.30488C154.233 8.78907 153.218 9.45365 152.35 10.2891C151.481 11.1246 150.798 12.1119 150.301 13.2512C149.803 14.3905 149.549 15.5962 149.549 16.8779C149.549 18.1596 149.803 19.3463 150.301 20.4761C150.798 21.6059 151.481 22.5837 152.35 23.4287C153.218 24.2642 154.233 24.9287 155.395 25.4129C156.556 25.8971 157.785 26.144 159.093 26.144C160.401 26.144 161.65 25.8971 162.801 25.4129C163.953 24.9287 164.958 24.2642 165.827 23.4287C166.685 22.5932 167.369 21.6059 167.866 20.4761C168.364 19.3463 168.618 18.1501 168.618 16.8779C168.618 15.6057 168.364 14.381 167.866 13.2512Z" fill="#ffffff"/>
<path d="M78.2516 13.697C78.8957 14.8838 79.5202 15.9091 80.1448 16.7921C80.1448 15.8996 80.3205 15.0547 80.662 14.2382C81.0036 13.4312 81.4817 12.7097 82.0965 12.0831C82.7016 11.4565 83.414 10.9628 84.2239 10.5925C85.0339 10.2223 85.922 10.0324 86.8686 10.0229C87.7468 10.0134 88.5861 10.1368 89.3668 10.4122C90.1573 10.6875 90.8892 11.1147 91.5723 11.6938C91.7089 11.7983 91.8455 11.8932 91.9919 11.9881C92.1383 12.0831 92.2944 12.14 92.4603 12.1875C92.6262 12.2255 92.8019 12.2255 92.9775 12.1875C93.1532 12.1495 93.3484 12.0451 93.5435 11.8742C93.8265 11.6274 93.9632 11.3236 93.9632 10.9723C93.9632 10.621 93.807 10.2887 93.5045 9.98492C92.7043 9.20642 91.7382 8.60831 90.6062 8.17159C89.4741 7.74436 88.3031 7.526 87.0833 7.526C85.7756 7.526 84.546 7.77284 83.3945 8.25703C82.2429 8.74122 81.228 9.4058 80.3693 10.2413C79.5105 11.0767 78.8274 12.0546 78.3297 13.1844C78.2711 13.3078 78.2223 13.4407 78.1735 13.5641C78.1931 13.6021 78.2223 13.6496 78.2418 13.6876" fill="#ffffff"/>
<path d="M72.6113 19.5172C72.2502 20.3432 71.7525 21.0647 71.1182 21.6818C70.4839 22.2989 69.7422 22.7926 68.8835 23.1534C68.0247 23.5141 67.1074 23.6945 66.1217 23.6945C65.1361 23.6945 64.209 23.5141 63.36 23.1534C62.5012 22.7926 61.7693 22.2989 61.135 21.6818C60.5105 21.0647 60.0128 20.3432 59.6419 19.5172C59.2711 18.6912 59.0954 17.8178 59.0954 16.8779C59.0954 15.938 59.2809 15.0456 59.6419 14.2101C60.003 13.3746 60.5105 12.6531 61.1448 12.036C61.7791 11.4189 62.5208 10.9347 63.3795 10.5739C64.2285 10.2132 65.1459 10.0423 66.1217 10.0423C67.0976 10.0423 68.0247 10.2227 68.8835 10.5739C69.7325 10.9347 70.4839 11.4189 71.1182 12.036C71.7525 12.6531 72.2502 13.3746 72.6113 14.2101C72.9724 15.0456 73.148 15.9285 73.148 16.8779C73.148 17.8273 72.9724 18.6912 72.6113 19.5172ZM93.5828 21.8052C93.3779 21.6344 93.1925 21.5299 92.9973 21.4919C92.8119 21.454 92.6362 21.454 92.4703 21.4919C92.3044 21.5299 92.1483 21.5964 92.0019 21.6818C91.8555 21.7768 91.7189 21.8717 91.5823 21.9761C90.8992 22.5743 90.1672 23.0015 89.3768 23.2578C88.762 23.4572 88.1179 23.5806 87.4543 23.6186V23.6566C87.142 23.6566 86.8493 23.6471 86.5468 23.6186C86.0686 23.5996 85.6002 23.5236 85.161 23.4097C83.6777 23.0774 82.331 22.4034 81.0819 21.3685C79.3838 19.9634 77.8029 17.8748 76.1244 14.7987C75.2754 13.2417 74.4264 11.9506 73.5481 10.8967C71.8403 9.13086 70.0252 8.08652 68.093 7.76373C67.4587 7.64031 66.8146 7.57385 66.1413 7.57385C64.8336 7.57385 63.604 7.82069 62.4427 8.30488C61.2814 8.78907 60.2665 9.45365 59.398 10.2891C58.5294 11.1246 57.8463 12.1119 57.3486 13.2512C56.8509 14.3905 56.5972 15.5962 56.5972 16.8779C56.5972 18.1596 56.8509 19.3463 57.3486 20.4761C57.8463 21.6059 58.5294 22.5932 59.398 23.4287C60.2665 24.2642 61.2814 24.9287 62.4427 25.4129C63.604 25.8971 64.8336 26.144 66.1413 26.144C67.4489 26.144 68.698 25.8971 69.8496 25.4129C71.0011 24.9287 72.0063 24.2642 72.8748 23.4287C73.7335 22.5932 74.4167 21.6059 74.9143 20.4761C75.2559 19.7071 75.4804 18.9096 75.5877 18.0836C77.0905 20.6945 78.5251 22.5268 80.067 23.799C81.8626 25.28 83.8533 26.0205 86.1467 26.087C86.4687 26.1155 86.7907 26.1345 87.1128 26.1345C88.3228 26.1345 89.5037 25.9161 90.6357 25.4889C91.7677 25.0617 92.7338 24.454 93.534 23.6755C93.8463 23.3812 93.9927 23.0489 93.9927 22.6882C93.9927 22.3274 93.856 22.0331 93.5926 21.8052" fill="#ffffff"/>
<path d="M27.067 14.0199C27.067 14.9313 26.3058 15.33 25.3592 15.33H19.465C18.5281 15.33 17.7572 16.4218 17.7572 17.3428C17.7572 18.2637 18.5184 19.365 19.465 19.365H25.3592C26.2961 19.365 27.067 19.7447 27.067 20.6561V21.3017C27.067 21.7384 26.8914 22.1657 26.5693 22.479L21.2313 27.6722C20.9093 27.9855 20.4799 28.1563 20.0212 28.1563H12.468C12.0191 28.1563 11.5799 27.9855 11.2579 27.6722L5.91986 22.479C5.59782 22.1657 5.42216 21.7479 5.42216 21.3017V13.9534C5.42216 13.5167 5.59782 13.0895 5.91986 12.7762L11.2579 7.57351C11.5799 7.26021 12.0093 7.08932 12.468 7.08932H20.0212C20.4701 7.08932 20.9093 7.26021 21.2313 7.57351L26.5693 12.7762C26.8914 13.0895 27.067 13.5072 27.067 13.9534V14.0199ZM31.1364 10.4692L23.6027 3.13984C23.0659 2.61768 22.334 2.32336 21.5729 2.32336H10.9163C10.1551 2.32336 9.42324 2.61768 8.88651 3.13984L1.35277 10.4692C0.81604 10.9913 0.513519 11.7034 0.513519 12.4439V22.8113C0.513519 23.5518 0.81604 24.2638 1.35277 24.786L8.88651 32.1153C9.42324 32.6375 10.1551 32.9318 10.9163 32.9318H21.5729C22.334 32.9318 23.0659 32.6375 23.6027 32.1153L31.1364 24.786C31.6731 24.2638 31.9757 23.5518 31.9757 22.8113V12.4439C31.9757 11.7034 31.6731 10.9913 31.1364 10.4692Z" fill="#ffffff"/>
<path d="M41.2365 0.510254V34.7358" stroke="#ffffff" stroke-width="0.375069"/>
</svg>
