<svg width="1.125rem" height="1.063rem" viewBox="0 0 25 24" fill="none" xmlns="http://www.w3.org/2000/svg">
<path d="M20.75 5.91406H17.75V4.03906C17.75 3.21172 17.0773 2.53906 16.25 2.53906H8.75C7.92266 2.53906 7.25 3.21172 7.25 4.03906V5.91406H4.25C3.83516 5.91406 3.5 6.24922 3.5 6.66406V7.41406C3.5 7.51719 3.58437 7.60156 3.6875 7.60156H5.10312L5.68203 19.8594C5.71953 20.6586 6.38047 21.2891 7.17969 21.2891H17.8203C18.6219 21.2891 19.2805 20.6609 19.318 19.8594L19.8969 7.60156H21.3125C21.4156 7.60156 21.5 7.51719 21.5 7.41406V6.66406C21.5 6.24922 21.1648 5.91406 20.75 5.91406ZM16.0625 5.91406H8.9375V4.22656H16.0625V5.91406Z" fill="#EB5757"/>
</svg>
