<svg width="19" height="19" viewBox="0 0 19 19" fill="none" xmlns="http://www.w3.org/2000/svg">
<path d="M4.35603 0.0788575H2.85603C2.11721 0.0788575 1.40865 0.372351 0.886229 0.894774C0.363806 1.4172 0.0703125 2.12575 0.0703125 2.86457V16.1503C0.0703925 16.852 0.33526 17.5278 0.811979 18.0426C1.2887 18.5575 1.94215 18.8735 2.64174 18.9274V11.436C2.64174 10.9245 2.84493 10.434 3.20661 10.0723C3.56828 9.71062 4.05882 9.50743 4.57031 9.50743H14.4275C14.9389 9.50743 15.4295 9.71062 15.7912 10.0723C16.1528 10.434 16.356 10.9245 16.356 11.436V18.9274C17.0556 18.8735 17.7091 18.5575 18.1858 18.0426C18.6625 17.5278 18.9274 16.852 18.9275 16.1503V5.03829C18.9275 4.67233 18.8555 4.30993 18.7155 3.97181C18.5755 3.63369 18.3702 3.32648 18.1115 3.06771L15.9386 0.894857C15.6798 0.636073 15.3726 0.43081 15.0345 0.290798C14.6964 0.150785 14.334 0.0787668 13.968 0.0788575H13.7846V5.00743C13.7846 5.26069 13.7347 5.51148 13.6378 5.74546C13.5409 5.97945 13.3988 6.19205 13.2197 6.37113C13.0406 6.55022 12.828 6.69228 12.5941 6.7892C12.3601 6.88612 12.1093 6.936 11.856 6.936H6.2846C5.77311 6.936 5.28257 6.73281 4.92089 6.37113C4.55922 6.00946 4.35603 5.51892 4.35603 5.00743V0.0788575ZM12.4989 0.0788575H5.64174V5.00743C5.64174 5.36229 5.92974 5.65029 6.2846 5.65029H11.856C12.0265 5.65029 12.19 5.58256 12.3106 5.462C12.4312 5.34144 12.4989 5.17793 12.4989 5.00743V0.0788575ZM15.0703 18.936V11.436C15.0703 11.2655 15.0026 11.102 14.882 10.9814C14.7615 10.8609 14.598 10.7931 14.4275 10.7931H4.57031C4.39982 10.7931 4.2363 10.8609 4.11574 10.9814C3.99518 11.102 3.92746 11.2655 3.92746 11.436V18.936H15.0703Z" fill="#3D6D9C"/>
</svg>
