<svg width="14" height="14" viewBox="0 0 14 14" fill="none" xmlns="http://www.w3.org/2000/svg">
<path d="M2.41563 1.70938C3.64375 0.64375 5.24687 0 7 0C10.8656 0 14 3.13437 14 7C14 8.75313 13.3562 10.3563 12.2906 11.5844C12.0719 11.8344 11.8375 12.0719 11.5844 12.2906C10.3563 13.3562 8.75313 14 7 14C3.13437 14 0 10.8656 0 7C0 5.24687 0.64375 3.64375 1.70938 2.41563C1.92813 2.16563 2.1625 1.92813 2.41563 1.70938ZM3.125 2.41875L11.5813 10.875C12.4656 9.82812 13 8.475 13 7C13 3.6875 10.3125 1 7 1C5.525 1 4.17188 1.53438 3.125 2.41875ZM1 7C1 10.3125 3.6875 13 7 13C8.475 13 9.82812 12.4656 10.875 11.5813L2.41875 3.125C1.53438 4.17188 1 5.525 1 7Z" fill="#EB5757"/>
</svg>
